<?xml version="1.0" encoding="utf-8"?>
<!-- Generator: Adobe Illustrator 15.0.0, SVG Export Plug-In . SVG Version: 6.00 Build 0)  -->
<!DOCTYPE svg PUBLIC "-//W3C//DTD SVG 1.1//EN" "http://www.w3.org/Graphics/SVG/1.1/DTD/svg11.dtd">
<svg version="1.1" id="Layer_1" xmlns="http://www.w3.org/2000/svg" xmlns:xlink="http://www.w3.org/1999/xlink" x="0px" y="0px"
	 width="612px" height="792px" viewBox="0 0 612 792" enable-background="new 0 0 612 792" xml:space="preserve">
<g>
	<path fill-rule="evenodd" clip-rule="evenodd" d="M220.577,447.762c-6.018-13.317-14.497-25.438-22.228-39.225
		c-8.896-15.863-28.031-47.857-8.716-65.375c2.434-2.208,7.25-4.686,11.332-5.23c24.109-3.214,47.33,13.453,65.375,19.177
		c10.65-20.293,20.729-41.159,31.379-61.452c-22.226-19.961-47.919-36.433-67.118-61.016c-7.667-9.818-19.411-30.832-7.845-44.019
		c11.235-12.811,41.538-10.266,62.759-7.409c23.529,3.168,43.247,7.341,62.76,11.332c5.917-8.338,9.861-19.034,15.254-29.201
		c5.112-9.638,9.538-20.769,15.689-28.765c17.222-22.383,58.898-7.847,51.864,24.842c11.2,2.33,22.528,5.967,31.815,12.204
		c8.574,5.757,17.434,14.517,17.434,26.585c0,12.034-9.16,21.565-22.228,22.663c-20.305,1.707-41.713-4.591-59.272-7.409
		c-21.195,31.686-41.801,63.961-62.76,95.883c18.768,15.908,43.16,33.748,60.145,54.915c6.288,7.837,14.517,17.309,13.075,30.944
		c-1.103,10.425-9.217,17.723-20.049,18.74c-18.301,1.72-37.27-7.165-52.735-13.946c-16.387-7.186-31.426-14.863-44.891-21.356
		c-10.233,12.556-17.956,26.995-27.021,40.533c-8.987,13.421-18.146,26.796-26.585,40.532c4.674,12.383,9.896,26.345,8.717,45.326
		c-0.724,11.645-4.464,21.104-8.717,28.765c-2.677,4.823-13.304,22.031-19.612,17.433c-6.196-4.516,5.991-14.744,7.845-17.433
		c10.113-14.669,14.993-43.07,5.23-63.631c-31.319,46.71-64.365,97.143-95.882,145.566c-0.736,1.132-1.722,4.074-2.615,3.052
		C162.487,563.421,191.455,505.519,220.577,447.762z M391.858,144.424c-5.47,5.47-8.162,16.679-11.332,25.714
		c-3.426,9.766-7.439,19.944-6.102,30.072c5.623,3.222,9.624-1.784,13.511-5.23c7.191-6.375,12.514-13.31,17.869-20.048
		c0.864-1.086,3.185-2.315,2.18-3.922c-5.482,0.085-19.711,8.867-19.177-1.308c0.419-7.969,20.301-8.367,27.457-9.588
		C421.812,143.611,401.557,134.726,391.858,144.424z M404.497,206.748c15.921,1.928,35.927,8.255,53.172,6.537
		c7.925-0.789,13.481-6.468,12.639-14.818c-1.579-15.645-27.845-25.699-42.711-27.458
		C419.601,182.626,411.905,194.543,404.497,206.748z M248.034,191.058c-7.733,0.602-17.639,3.528-19.612,9.152
		c-3.794,10.817,5.764,22.775,10.46,28.765c12.522,15.969,26.523,27.492,41.404,39.661c7.525,6.154,14.785,12.443,22.663,16.998
		c13.213-27.755,27.887-54.049,40.968-81.936C314.457,199.433,282.648,188.365,248.034,191.058z M336.943,391.104
		c13.557,6.01,27.954,13.396,44.02,14.818c10.806,0.957,20.025-1.814,18.305-14.818c-0.995-7.514-7.793-16.153-12.64-21.792
		c-16.427-19.111-37.909-34.13-55.786-48.813c-11.367,15.509-23.348,34.182-33.995,51.864
		C309.549,378.6,322.949,384.9,336.943,391.104z M235.396,354.93c-15.106-5.693-45.997-16.272-44.019,10.896
		c0.984,13.518,8.814,25.914,15.254,37.481c6.683,12.004,13.88,23.457,20.048,33.123c11.122-23.891,23.709-46.314,34.866-70.169
		C253.739,362.396,244.918,358.519,235.396,354.93z"/>
</g>
</svg>
