<?xml version="1.0" encoding="utf-8"?>
<!-- Generator: Adobe Illustrator 15.0.0, SVG Export Plug-In . SVG Version: 6.00 Build 0)  -->
<!DOCTYPE svg PUBLIC "-//W3C//DTD SVG 1.1//EN" "http://www.w3.org/Graphics/SVG/1.1/DTD/svg11.dtd">
<svg version="1.1" xmlns="http://www.w3.org/2000/svg" xmlns:xlink="http://www.w3.org/1999/xlink" x="0px" y="0px" width="612px"
	 height="792px" viewBox="0 0 612 792" enable-background="new 0 0 612 792" xml:space="preserve">
<g id="Thread">
	<g>
		<path fill-rule="evenodd" clip-rule="evenodd" d="M526.786,375.017c-0.46-1.37-1.085-4.324-1.142-4.401
			c-8.232-30.68-24.586-50.997-45.146-68.621c-19.193-16.453-47.279-35.167-81.262-33.107c-3.065,0.186-11.643,1.425-13.299,1.894
			c-0.906,0.125-2.938,0.994-3.56,1.111c0.001,0.001,0.003,0.003,0.005,0.005c-37.105,14.663-42.129,63.307-51.768,109.553
			c-7.623,36.573-17.695,78.956-55.379,82.465c-26.993,2.516-44.319-9.168-60.193-19.262c-13.604-8.65-26.245-18.367-36.719-29.496
			l-6.621,5.418c4.384-1.518,7.606,3.656,10.233,6.02c20.242,18.211,51.506,43.648,87.282,43.34
			c17.671-0.152,32.586-8.186,42.136-19.863c31.328-38.312,22.535-117.146,51.766-157.107c5.938-8.115,14.773-14.097,25.283-16.854
			c0.092,0.072,5.674-1.097,7.844-1.188c-0.006-0.005-0.013-0.011-0.02-0.016c30.738-2.499,61.264,14.128,79.457,29.495
			c19.404,16.389,34.52,37.315,42.644,61.134c0.322,0.463,2.123,6.972,2.257,7.555c0.426,0.839,1.493,7.788,1.464,8.017
			c0.668,30.765-10.949,51.525-25.899,68.964c-12.699,14.812-29.102,28.18-49.359,31.301c-31.492,4.852-56.205-21.258-57.184-49.359
			c-0.703-20.186,8.645-33.113,14.447-49.961c-10.129,11.921-20.006,29.16-19.865,49.359c0.223,31.736,24.91,55.055,54.777,55.98
			c28.699,0.889,48.592-18.715,62-34.914c15.655-18.913,27.627-39.678,26.492-68.956
			C527.708,381.292,526.799,375.385,526.786,375.017z"/>
	</g>
</g>
<g id="Needle">
	<g>
		<path fill-rule="evenodd" clip-rule="evenodd" fill="#656565" d="M525.645,370.616c-0.426-0.522-7.473-5.084-7.223-4.815
			l-27.686-20.594c-31.753-23.338-64.583-46.802-94.51-70.299c0.089-0.007-2.771-2.071-4.222-3.07
			c-1.177-0.681-3.349-1.791-4.074-2.002c-6.422-1.839-13.729-10.198-19.394-14.19c-7.652-5.394-14.438-9.918-21.068-13.243
			c10.871,10.197,25.312,20.004,34.914,29.495l6.02,4.213c44.25,34.941,89.76,68.625,133.527,104.053l0.004,0.002
			c-0.158-1.71-0.891-5.278-0.895-5.281c-3.786-2.742-7.47-5.91-8.035-7.881c3.488,0.571,11.81,6.475,13.935,8.412
			c1.708,1.146,3.057,2.698,2.919,4.831c-0.306-0.019-1.27-0.495-2.593-1.269c-0.006-0.003-0.015-0.009-0.021-0.012
			c0.012,0.064,0.205,4.291,0.205,4.291c2.833,1.101,6.453,3.79,10.234,1.806C536.195,377.721,529.367,375.722,525.645,370.616z"/>
	</g>
</g>
<g id="Thread_Spool">
	
		<ellipse transform="matrix(0.693 0.721 -0.721 0.693 282.5326 -63.1746)" fill-rule="evenodd" clip-rule="evenodd" fill="#774F35" cx="215.438" cy="300.127" rx="81.407" ry="29.768"/>
	
		<ellipse transform="matrix(0.693 0.721 -0.721 0.693 321.3978 37.3101)" fill-rule="evenodd" clip-rule="evenodd" fill="#774F35" cx="116.894" cy="396" rx="81.407" ry="29.768"/>
	<path fill-rule="evenodd" clip-rule="evenodd" fill="#1136A2" d="M163.2,279.11l-20.273,17.308L122.5,316.25l-20.25,22L89.5,358
		c-3.058,3.027-0.575,21.628,4,26.25l38.558,40.085c5.741,5.799,22.755,8.802,27.942,3.665l18.5-11.75l21-18l26.002-27.017
		l13.342-15.67l-9.594-5.626l-10.245-6.913l-13.38-11.087L193.25,320l-8.188-9l-8.938-11.688l-7.562-10.688L163.2,279.11z"/>
	
		<ellipse transform="matrix(0.693 0.721 -0.721 0.693 280.7304 -66.9806)" fill-rule="evenodd" clip-rule="evenodd" fill="#443023" cx="219.005" cy="296.107" rx="32.874" ry="12.668"/>
</g>
</svg>
